<svg width="40" height="50" viewBox="0 0 40 50" fill="none" xmlns="http://www.w3.org/2000/svg">
<path d="M18.2077 32.6172V32.3672H17.9577H13.0749C12.1345 32.3672 11.3717 31.6048 11.3717 30.6641C11.3717 29.7234 12.1345 28.9609 13.0749 28.9609H17.9577H18.2077V28.7109V23.8281C18.2077 22.8874 18.9704 22.125 19.9108 22.125C20.8515 22.125 21.6139 22.8874 21.6139 23.8281V28.7109V28.9609H21.8639H26.7467C27.6875 28.9609 28.4499 29.7233 28.4499 30.6641C28.4499 31.6048 27.6875 32.3672 26.7467 32.3672H21.8639H21.6139V32.6172V37.5C21.6139 38.4407 20.8515 39.2031 19.9108 39.2031C18.9704 39.2031 18.2077 38.4407 18.2077 37.5V32.6172ZM25.6725 8.53906H25.4225V8.78906V9.76562C25.4225 12.8586 22.9061 15.375 19.8132 15.375C16.7206 15.375 14.2038 12.8586 14.2038 9.76562V8.78906V8.53906H13.9538H7.8125C5.52025 8.53906 3.65625 10.4035 3.65625 12.6953V42.1875C3.65625 44.4793 5.52025 46.3438 7.8125 46.3438H31.8249C34.1171 46.3438 35.9811 44.4793 35.9811 42.1875C35.9811 41.2468 36.7439 40.4844 37.6842 40.4844C38.625 40.4844 39.3874 41.2468 39.3874 42.1875C39.3874 46.3574 35.9947 49.75 31.8249 49.75H7.8125C3.64263 49.75 0.25 46.3574 0.25 42.1875V12.6953C0.25 8.52545 3.64263 5.13281 7.8125 5.13281H13.9542H14.2042V4.88281V1.95312C14.2042 1.0124 14.9666 0.25 15.9073 0.25H23.7198C24.6602 0.25 25.4229 1.01243 25.4229 1.95312V4.88281V5.13281H25.6729H31.8253C35.9948 5.13281 39.3878 8.52545 39.3878 12.6953V32.5195C39.3878 33.4602 38.625 34.2227 37.6846 34.2227C36.7438 34.2227 35.9811 33.4602 35.9811 32.5195V12.6953C35.9811 10.4035 34.1171 8.53906 31.8249 8.53906H25.6725ZM22.0163 3.90625V3.65625H21.7663H17.86H17.61V3.90625V9.76562C17.61 10.9806 18.5982 11.9688 19.8132 11.9688C21.0281 11.9688 22.0163 10.9806 22.0163 9.76562V3.90625Z" fill="white" stroke="#50CAFF" stroke-width="0.5"/>
</svg>
